# xmcd
#
# Track frame offsets: 
#        150
#        17917
#        35166
#        57516
#        87583
#        107311
#        132291
#        150935
#        185033
#        210818
#        243901
#        265410
#
# Disc length: 3795 seconds
#
# Revision: 0
# Processed by: cddbd v1.5.2PL0 Copyright (c) Steve Scherf et al.
# Submitted via: ExactAudioCopy v0.99pb3
#
DISCID=9e0ed10c
DTITLE=Joe Louis Walker - Between A Rock And The Blues
DYEAR=2009
DGENRE=Blues
TTITLE0=I'm Tide
TTITLE1=Eyes Like A Cat
TTITLE2=Black Widow Spider
TTITLE3=If There's A Heaven
TTITLE4=Way Too Expensive
TTITLE5=I've Been Down
TTITLE6=Prisoner Of Misery
TTITLE7=Hallways
TTITLE8=Tell Me Why
TTITLE9=Blackjack
TTITLE10=Big Fine Woman
TTITLE11=Send You Back
EXTD=
EXTT0=
EXTT1=
EXTT2=
EXTT3=
EXTT4=
EXTT5=
EXTT6=
EXTT7=
EXTT8=
EXTT9=
EXTT10=
EXTT11=
PLAYORDER=
